# xmcd
#
# Track frame offsets:
#	150
#	18407
#	34785
#	50885
#	64007
#	77812
#	93965
#	109547
#	127037
#	143960
#	157265
#	174885
#	190670
#	206945
#
# Disc length: 2986 seconds
#
# Revision: 2
# Processed by: cddbd v1.4PL0 Copyright (c) Steve Scherf et al.
# Submitted via: audiograbber 1.82.00
#
DISCID=c40ba80e
DTITLE=Various Artist - Hot Hits Country Vol. 11
DYEAR=1994
DGENRE=Country
TTITLE0=Faith Hill - Piece Of My Heart
TTITLE1=Carlene Carter - I Love You 'Cause I Want to
TTITLE2=Alabama - T.L.C.A.S.A.P.
TTITLE3=John Anderson - I've Got It Made
TTITLE4=Marty Stuart - Kiss Me, I'm Gone
TTITLE5=Daron Norwood - If It Wasn't For Her, I Wouldn't Have You
TTITLE6=Chris Ledoux - For Your Love
TTITLE7=The Mavericks - What A Crying Shame
TTITLE8=Lee Roy Parnell - I'm Holding My Own
TTITLE9=Dwight Yoakum - Try Not To Look So Pretty
TTITLE10=Trisha Yearwood - Better Your Heart Than Mine
TTITLE11=Alan Jackson - (Who Says) You Can't Have It All
TTITLE12=Diamond Rio - Sawmill Road
TTITLE13=Neal McCoy - No Doubt About It
EXTD=
EXTT0=
EXTT1=
EXTT2=
EXTT3=
EXTT4=
EXTT5=
EXTT6=
EXTT7=
EXTT8=
EXTT9=
EXTT10=
EXTT11=
EXTT12=
EXTT13=
PLAYORDER=
